<svg width="55" height="37" viewBox="0 0 55 37" fill="none" xmlns="http://www.w3.org/2000/svg">
<path d="M32.8411 36.0045C32.1348 35.3408 31.7958 34.5389 31.8241 33.5986C31.8547 32.6584 32.2231 31.8565 32.9294 31.1928L42.9053 21.8184H3.5313C2.53077 21.8184 1.69149 21.4998 1.01348 20.8627C0.337828 20.2278 0 19.4402 0 18.5C0 17.5598 0.337828 16.7711 1.01348 16.134C1.69149 15.4991 2.53077 15.1816 3.5313 15.1816H42.9053L32.8411 5.72421C32.1348 5.06054 31.7817 4.27187 31.7817 3.3582C31.7817 2.44675 32.1348 1.65919 32.8411 0.995515C33.5474 0.331838 34.3866 0 35.3589 0C36.3288 0 37.1669 0.331838 37.8732 0.995515L54.0289 16.1771C54.382 16.509 54.6327 16.8685 54.7811 17.2556C54.927 17.6427 55 18.0575 55 18.5C55 18.9424 54.927 19.3572 54.7811 19.7444C54.6327 20.1315 54.382 20.491 54.0289 20.8229L37.7849 36.0874C37.1375 36.6958 36.3288 37 35.3589 37C34.3866 37 33.5474 36.6682 32.8411 36.0045Z" fill="#E89C31"/>
</svg>
